<svg width="16" height="16" viewBox="0 0 16 16" fill="none" xmlns="http://www.w3.org/2000/svg">
<g clip-path="url(#clip0_29_1593)">
<path d="M10.667 5.33325C11.7279 5.33325 12.7453 5.75468 13.4954 6.50482C14.2456 7.25497 14.667 8.27239 14.667 9.33325V13.9999H12.0003V9.33325C12.0003 8.97963 11.8598 8.64049 11.6098 8.39044C11.3598 8.14039 11.0206 7.99992 10.667 7.99992C10.3134 7.99992 9.97423 8.14039 9.72418 8.39044C9.47413 8.64049 9.33366 8.97963 9.33366 9.33325V13.9999H6.66699V9.33325C6.66699 8.27239 7.08842 7.25497 7.83857 6.50482C8.58871 5.75468 9.60613 5.33325 10.667 5.33325Z" stroke="#0A0A0A" stroke-width="1.33333" stroke-linecap="round" stroke-linejoin="round"/>
<path d="M3.99967 6H1.33301V14H3.99967V6Z" stroke="#0A0A0A" stroke-width="1.33333" stroke-linecap="round" stroke-linejoin="round"/>
<path d="M2.66634 3.99992C3.40272 3.99992 3.99967 3.40297 3.99967 2.66659C3.99967 1.93021 3.40272 1.33325 2.66634 1.33325C1.92996 1.33325 1.33301 1.93021 1.33301 2.66659C1.33301 3.40297 1.92996 3.99992 2.66634 3.99992Z" stroke="#0A0A0A" stroke-width="1.33333" stroke-linecap="round" stroke-linejoin="round"/>
</g>
<defs>
<clipPath id="clip0_29_1593">
<rect width="16" height="16" fill="white"/>
</clipPath>
</defs>
</svg>
