<svg width="16" height="16" viewBox="0 0 16 16" fill="none" xmlns="http://www.w3.org/2000/svg">
<path d="M10.0002 14.6666V11.9999C10.0929 11.1648 9.85347 10.3267 9.33352 9.66659C11.3335 9.66659 13.3335 8.33325 13.3335 5.99992C13.3869 5.16659 13.1535 4.34659 12.6669 3.66659C12.8535 2.89992 12.8535 2.09992 12.6669 1.33325C12.6669 1.33325 12.0002 1.33325 10.6669 2.33325C8.90685 1.99992 7.09352 1.99992 5.33352 2.33325C4.00019 1.33325 3.33352 1.33325 3.33352 1.33325C3.13352 2.09992 3.13352 2.89992 3.33352 3.66659C2.8481 4.34384 2.6125 5.16844 2.66685 5.99992C2.66685 8.33325 4.66685 9.66659 6.66685 9.66659C6.40685 9.99325 6.21352 10.3666 6.10019 10.7666C5.98685 11.1666 5.95352 11.5866 6.00019 11.9999V14.6666" stroke="#0A0A0A" stroke-width="1.33333" stroke-linecap="round" stroke-linejoin="round"/>
<path d="M5.99967 12.0001C2.99301 13.3334 2.66634 10.6667 1.33301 10.6667" stroke="#0A0A0A" stroke-width="1.33333" stroke-linecap="round" stroke-linejoin="round"/>
</svg>
